<svg width="18" height="18" viewBox="0 0 18 18" fill="none" xmlns="http://www.w3.org/2000/svg">
<path d="M15.3397 3.47885C15.0205 3.15962 14.5048 3.15962 14.1855 3.47885L13.8663 3.79809C13.5471 4.11733 13.5553 4.63302 13.8663 4.94407L13.8745 4.95225C14.1937 5.27149 14.7094 5.27149 15.0287 4.95225L15.3479 4.63302C15.6589 4.30559 15.6589 3.79809 15.3397 3.47885ZM9.00409 0.851295L8.99591 0.851295C8.5457 0.851295 8.18554 1.21146 8.18554 1.66166L8.18554 2.44748C8.18554 2.89768 8.5457 3.25784 8.99591 3.25784L9.00409 3.25784C9.4543 3.25784 9.81446 2.89768 9.81446 2.44748L9.81446 1.66166C9.81446 1.21146 9.4543 0.851295 9.00409 0.851295ZM16.3547 10.633L17.1896 10.633C17.6398 10.633 18 10.2729 18 9.82265L18 9.81446C18 9.36426 17.6398 9.00409 17.1896 9.00409L16.3629 9.00409C15.9127 9.00409 15.5525 9.36426 15.5525 9.81446L15.5525 9.82265C15.5443 10.2729 15.9045 10.633 16.3547 10.633ZM6.54025 14.0628L6.54025 17.1814C6.54025 17.6316 6.90859 18 7.3588 18L10.633 18C11.0832 18 11.4516 17.6317 11.4516 17.1814L11.4516 14.0628C13.1214 13.0969 14.1692 11.1814 13.8499 9.04502C13.5225 6.90859 11.7544 5.19782 9.60982 4.93588C6.63029 4.57572 4.08458 6.90041 4.08458 9.80627C4.08458 11.6316 5.07503 13.2115 6.54025 14.0628ZM2.44748 9.82265L2.44748 9.81446C2.44748 9.36426 2.08731 9.00409 1.63711 9.00409L0.810368 9.00409C0.360164 9.00409 7.54961e-07 9.36426 7.15602e-07 9.81446L7.14887e-07 9.82265C6.75529e-07 10.2729 0.360163 10.633 0.810368 10.633L1.63711 10.633C2.08731 10.633 2.44748 10.2729 2.44748 9.82265ZM4.1337 3.7899L3.81446 3.47067C3.49523 3.15143 2.97954 3.15143 2.6603 3.47067C2.34106 3.7899 2.34106 4.30559 2.6603 4.62483L2.97954 4.94406C3.29877 5.2633 3.81446 5.25512 4.12551 4.94406C4.45293 4.61664 4.45293 4.10914 4.1337 3.7899Z" fill="#C4C4C4"/>
<path d="M15.3397 3.47885C15.0205 3.15962 14.5048 3.15962 14.1855 3.47885L13.8663 3.79809C13.5471 4.11733 13.5553 4.63302 13.8663 4.94407L13.8745 4.95225C14.1937 5.27149 14.7094 5.27149 15.0287 4.95225L15.3479 4.63302C15.6589 4.30559 15.6589 3.79809 15.3397 3.47885ZM9.00409 0.851295L8.99591 0.851295C8.5457 0.851295 8.18554 1.21146 8.18554 1.66166L8.18554 2.44748C8.18554 2.89768 8.5457 3.25784 8.99591 3.25784L9.00409 3.25784C9.4543 3.25784 9.81446 2.89768 9.81446 2.44748L9.81446 1.66166C9.81446 1.21146 9.4543 0.851295 9.00409 0.851295ZM16.3547 10.633L17.1896 10.633C17.6398 10.633 18 10.2729 18 9.82265L18 9.81446C18 9.36426 17.6398 9.00409 17.1896 9.00409L16.3629 9.00409C15.9127 9.00409 15.5525 9.36426 15.5525 9.81446L15.5525 9.82265C15.5443 10.2729 15.9045 10.633 16.3547 10.633ZM6.54025 14.0628L6.54025 17.1814C6.54025 17.6316 6.90859 18 7.3588 18L10.633 18C11.0832 18 11.4516 17.6317 11.4516 17.1814L11.4516 14.0628C13.1214 13.0969 14.1692 11.1814 13.8499 9.04502C13.5225 6.90859 11.7544 5.19782 9.60982 4.93588C6.63029 4.57572 4.08458 6.90041 4.08458 9.80627C4.08458 11.6316 5.07503 13.2115 6.54025 14.0628ZM2.44748 9.82265L2.44748 9.81446C2.44748 9.36426 2.08731 9.00409 1.63711 9.00409L0.810368 9.00409C0.360164 9.00409 7.54961e-07 9.36426 7.15602e-07 9.81446L7.14887e-07 9.82265C6.75529e-07 10.2729 0.360163 10.633 0.810368 10.633L1.63711 10.633C2.08731 10.633 2.44748 10.2729 2.44748 9.82265ZM4.1337 3.7899L3.81446 3.47067C3.49523 3.15143 2.97954 3.15143 2.6603 3.47067C2.34106 3.7899 2.34106 4.30559 2.6603 4.62483L2.97954 4.94406C3.29877 5.2633 3.81446 5.25512 4.12551 4.94406C4.45293 4.61664 4.45293 4.10914 4.1337 3.7899Z" fill="white"/>
</svg>
