<svg width="13" height="19" viewBox="0 0 13 19" fill="none" xmlns="http://www.w3.org/2000/svg">
<circle cx="7.1137" cy="16.5086" r="1.6" fill="white"/>
<path fill-rule="evenodd" clip-rule="evenodd" d="M8.75757 3.87905C7.84999 3.36909 6.6167 3.38816 5.93925 3.84966C4.80435 4.62278 4.45006 4.98502 4.09707 5.34593C4.08873 5.35446 4.0804 5.36298 4.07205 5.37151L3.0229 6.44356L0.878799 4.34527L1.92794 3.27322C2.40414 2.78663 2.89826 2.2913 4.25025 1.37029C6.05201 0.142887 8.53486 0.312763 10.2271 1.26365C11.1105 1.75998 11.9251 2.54703 12.297 3.64316C12.6811 4.77514 12.5149 6.00646 11.8503 7.19496C11.4335 7.94031 10.8655 8.50112 10.3794 8.93701C10.1728 9.1223 9.99468 9.27479 9.83284 9.41334C9.56195 9.64527 9.33665 9.83815 9.0995 10.0805C8.67795 10.5113 8.49529 10.7336 8.39328 10.9212C8.32179 11.0528 8.26256 11.2163 8.2702 11.5674L8.3028 13.067L5.30351 13.1323L5.27091 11.6326C5.2535 10.832 5.40374 10.1394 5.75747 9.48858C6.08066 8.89397 6.53895 8.40779 6.95531 7.98231C7.28005 7.65045 7.68249 7.30427 8.01335 7.01966C8.1502 6.90194 8.2748 6.79476 8.37659 6.70348C8.7909 6.33196 9.06084 6.03662 9.23191 5.73071C9.56024 5.14359 9.51964 4.79437 9.45611 4.60712C9.38041 4.38402 9.17418 4.11314 8.75757 3.87905Z" fill="white"/>
</svg>
