<svg width="155" height="146" viewBox="0 0 155 146" fill="none" xmlns="http://www.w3.org/2000/svg">
<path d="M76.5 145.955L64.8333 136.633C19.2083 105.005 0.924988 74.2085 0.924988 44.3447C0.924988 19.9908 14.4333 0.156517 38.8167 0.156517C53.408 1.13244 66.991 7.9367 76.5 19.0337C84.3319 8.10812 96.5959 1.19607 110.008 0.148193C134.471 0.152605 154.325 19.912 154.417 44.3447C154.417 74.2335 139.233 97.2223 89.4167 136.633L76.5 145.955Z" fill="#FFF387"/>
<path d="M76.5 145.955L64.8333 136.633C19.2083 105.005 0.924988 74.2085 0.924988 44.3447C0.924988 19.9908 14.4333 0.156517 38.8167 0.156517C53.408 1.13244 66.991 7.9367 76.5 19.0337C84.3319 8.10812 96.5959 1.19607 110.008 0.148193C134.471 0.152605 154.325 19.912 154.417 44.3447C154.417 74.2335 139.233 97.2223 89.4167 136.633L76.5 145.955Z" fill="#FF8787"/>
</svg>
