<svg aria-hidden="true" style="position: absolute; width: 0; height: 0; overflow: hidden;" version="1.1" xmlns="http://www.w3.org/2000/svg" xmlns:xlink="http://www.w3.org/1999/xlink">
<defs>
<symbol id="icon-workflow1" viewBox="0 0 22 32">
<title>workflow1</title>
<path fill="#fff" style="fill: var(--color1, #fff)" d="M14.676 27.804c0 1.488-1.206 2.695-2.695 2.695s-2.695-1.206-2.695-2.695c0-1.488 1.206-2.695 2.695-2.695s2.695 1.206 2.695 2.695z"></path>
<path fill="#fff" style="fill: var(--color1, #fff)" d="M14.75 6.533c-1.529-0.859-3.606-0.827-4.747-0.050-1.911 1.302-2.508 1.912-3.103 2.52-0.014 0.014-0.028 0.029-0.042 0.043l-1.767 1.806-3.611-3.534 1.767-1.806c0.802-0.82 1.634-1.654 3.911-3.205 3.035-2.067 7.216-1.781 10.066-0.18 1.488 0.836 2.86 2.161 3.486 4.008 0.647 1.907 0.367 3.98-0.752 5.982-0.702 1.255-1.659 2.2-2.477 2.934-0.348 0.312-0.648 0.569-0.921 0.802-0.456 0.391-0.836 0.715-1.235 1.124-0.71 0.726-1.018 1.1-1.189 1.416-0.12 0.222-0.22 0.497-0.207 1.088l0.055 2.526-5.051 0.11-0.055-2.526c-0.029-1.348 0.224-2.515 0.819-3.611 0.544-1.001 1.316-1.82 2.017-2.537 0.547-0.559 1.225-1.142 1.782-1.621 0.23-0.198 0.44-0.379 0.612-0.533 0.698-0.626 1.152-1.123 1.441-1.638 0.553-0.989 0.485-1.577 0.378-1.892-0.127-0.376-0.475-0.832-1.177-1.226z"></path>
</symbol>
<symbol id="icon-workflow2" viewBox="0 0 32 32">
<title>workflow2</title>
<path fill="#c4c4c4" style="fill: var(--color2, #c4c4c4)" d="M27.271 6.185c-0.567-0.568-1.484-0.568-2.052 0l-0.567 0.568c-0.567 0.568-0.553 1.484 0 2.037l0.015 0.015c0.567 0.568 1.484 0.568 2.052 0l0.567-0.568c0.553-0.582 0.553-1.484-0.015-2.052zM16.007 1.513h-0.015c-0.8 0-1.441 0.64-1.441 1.441v1.397c0 0.8 0.64 1.441 1.441 1.441h0.015c0.8 0 1.441-0.64 1.441-1.441v-1.397c0-0.8-0.64-1.441-1.441-1.441zM29.075 18.903h1.484c0.8 0 1.441-0.64 1.441-1.441v-0.015c0-0.8-0.64-1.441-1.441-1.441h-1.47c-0.8 0-1.441 0.64-1.441 1.441v0.015c-0.015 0.8 0.626 1.441 1.426 1.441zM11.627 25.001v5.544c0 0.8 0.655 1.455 1.455 1.455h5.821c0.8 0 1.455-0.655 1.455-1.455v-5.544c2.969-1.717 4.831-5.122 4.264-8.921-0.582-3.798-3.725-6.839-7.538-7.305-5.297-0.64-9.823 3.492-9.823 8.658 0 3.245 1.761 6.054 4.366 7.567zM4.351 17.462v-0.015c0-0.8-0.64-1.441-1.441-1.441h-1.47c-0.8 0-1.441 0.64-1.441 1.441v0.015c0 0.8 0.64 1.441 1.441 1.441h1.47c0.8 0 1.441-0.64 1.441-1.441zM7.349 6.738l-0.568-0.568c-0.568-0.568-1.484-0.568-2.052 0s-0.568 1.484 0 2.052l0.568 0.568c0.568 0.568 1.484 0.553 2.037 0 0.582-0.582 0.582-1.484 0.015-2.052z"></path>
<path fill="#fff" style="fill: var(--color1, #fff)" d="M27.271 6.185c-0.567-0.568-1.484-0.568-2.052 0l-0.567 0.568c-0.567 0.568-0.553 1.484 0 2.037l0.015 0.015c0.567 0.568 1.484 0.568 2.052 0l0.567-0.568c0.553-0.582 0.553-1.484-0.015-2.052zM16.007 1.513h-0.015c-0.8 0-1.441 0.64-1.441 1.441v1.397c0 0.8 0.64 1.441 1.441 1.441h0.015c0.8 0 1.441-0.64 1.441-1.441v-1.397c0-0.8-0.64-1.441-1.441-1.441zM29.075 18.903h1.484c0.8 0 1.441-0.64 1.441-1.441v-0.015c0-0.8-0.64-1.441-1.441-1.441h-1.47c-0.8 0-1.441 0.64-1.441 1.441v0.015c-0.015 0.8 0.626 1.441 1.426 1.441zM11.627 25.001v5.544c0 0.8 0.655 1.455 1.455 1.455h5.821c0.8 0 1.455-0.655 1.455-1.455v-5.544c2.969-1.717 4.831-5.122 4.264-8.921-0.582-3.798-3.725-6.839-7.538-7.305-5.297-0.64-9.823 3.492-9.823 8.658 0 3.245 1.761 6.054 4.366 7.567zM4.351 17.462v-0.015c0-0.8-0.64-1.441-1.441-1.441h-1.47c-0.8 0-1.441 0.64-1.441 1.441v0.015c0 0.8 0.64 1.441 1.441 1.441h1.47c0.8 0 1.441-0.64 1.441-1.441zM7.349 6.738l-0.568-0.568c-0.568-0.568-1.484-0.568-2.052 0s-0.568 1.484 0 2.052l0.568 0.568c0.568 0.568 1.484 0.553 2.037 0 0.582-0.582 0.582-1.484 0.015-2.052z"></path>
</symbol>
<symbol id="icon-workflow3" viewBox="0 0 41 32">
<title>workflow3</title>
<path fill="#fff" style="fill: var(--color1, #fff)" d="M34.988 4.267v19.817h-30.722v-19.817h30.722zM4.267 0c-2.356 0-4.267 1.91-4.267 4.267v19.817c0 2.356 1.91 4.267 4.267 4.267h30.722c2.356 0 4.267-1.91 4.267-4.267v-19.817c0-2.356-1.91-4.267-4.267-4.267h-30.722z"></path>
<path fill="#fff" style="fill: var(--color1, #fff)" d="M13.162 30.175c0-1.008 0.817-1.825 1.825-1.825h10.206c1.008 0 1.824 0.817 1.824 1.825s-0.817 1.825-1.824 1.825h-10.206c-1.008 0-1.825-0.817-1.825-1.825z"></path>
<path fill="#fff" style="fill: var(--color1, #fff)" d="M14.329 18.077h-8.659v-2.133h8.659v2.133z"></path>
<path fill="#fff" style="fill: var(--color1, #fff)" d="M17.793 21.726h-12.123v-2.133h12.123v2.133z"></path>
<path fill="#fff" style="fill: var(--color1, #fff)" d="M5.67 6.542h2.309l1.155 3.649-1.155 3.649h-2.309v-7.298z"></path>
<path fill="#fff" style="fill: var(--color1, #fff)" d="M10.866 6.542h2.309l1.155 3.649-1.155 3.649h-2.309v-7.298z"></path>
<path fill="#fff" style="fill: var(--color1, #fff)" d="M16.061 6.542h2.309l1.155 3.649-1.155 3.649h-2.309v-7.298z"></path>
<path fill="#fff" style="fill: var(--color1, #fff)" d="M26.101 20.679v-14.475h1.6v14.475h-1.6z"></path>
<path fill="#fff" style="fill: var(--color1, #fff)" d="M33.771 14.241h-13.739v-1.6h13.739v1.6z"></path>
<path fill="#fff" style="fill: var(--color1, #fff)" d="M25.092 15.59c0 0.616-0.474 1.115-1.058 1.115s-1.058-0.499-1.058-1.115c0-0.616 0.474-1.115 1.058-1.115s1.058 0.499 1.058 1.115z"></path>
<path fill="#fff" style="fill: var(--color1, #fff)" d="M30.134 19.28c0 0.369-0.284 0.669-0.635 0.669s-0.635-0.3-0.635-0.669c0-0.369 0.284-0.669 0.635-0.669s0.635 0.3 0.635 0.669z"></path>
<path fill="#fff" style="fill: var(--color1, #fff)" d="M33.097 8.434c0 1.232-0.948 2.23-2.117 2.23s-2.117-0.998-2.117-2.23c0-1.232 0.948-2.23 2.117-2.23s2.117 0.998 2.117 2.23z"></path>
</symbol>
<symbol id="icon-workflow4" viewBox="0 0 26 32">
<title>workflow4</title>
<path fill="#fff" style="fill: var(--color1, #fff)" d="M21.856 9.6l-7.92-7.904c-0.624-0.624-1.632-0.624-2.256 0l-7.936 7.904c-2.496 2.496-3.744 5.824-3.744 9.024s1.248 6.576 3.744 9.072 5.776 3.76 9.056 3.76c3.28 0 6.56-1.264 9.056-3.76s3.744-5.872 3.744-9.072c0-3.2-1.248-6.528-3.744-9.024zM3.2 19.2c0.016-3.2 0.992-5.232 2.816-7.040l6.784-6.928 6.784 7.008c1.824 1.792 2.8 3.76 2.816 6.96h-19.2z"></path>
</symbol>
<symbol id="icon-twitter" viewBox="0 0 36 32">
<title>twitter</title>
<path fill="#1da1f2" style="fill: var(--color3, #1da1f2)" d="M11.181 30.449c13.417 0 20.756-11.116 20.756-20.756 0-0.316 0-0.63-0.021-0.943 1.428-1.033 2.66-2.311 3.639-3.776-1.331 0.59-2.744 0.977-4.19 1.148 1.523-0.912 2.663-2.346 3.207-4.035-1.432 0.85-2.999 1.449-4.632 1.771-1.1-1.17-2.555-1.944-4.139-2.203s-3.21 0.010-4.626 0.768c-1.415 0.758-2.542 1.96-3.205 3.423s-0.826 3.102-0.463 4.666c-2.9-0.145-5.738-0.899-8.328-2.212s-4.875-3.156-6.707-5.41c-0.933 1.606-1.219 3.507-0.799 5.316s1.513 3.39 3.057 4.422c-1.161-0.034-2.296-0.348-3.311-0.913 0 0.030 0 0.061 0 0.092 0 1.684 0.583 3.316 1.65 4.62s2.551 2.198 4.202 2.531c-1.074 0.293-2.201 0.336-3.294 0.125 0.466 1.449 1.374 2.717 2.596 3.625s2.697 1.412 4.22 1.441c-2.583 2.030-5.774 3.132-9.060 3.129-0.58-0.001-1.16-0.036-1.737-0.105 3.336 2.141 7.218 3.276 11.181 3.271z"></path>
</symbol>
<symbol id="icon-topArrow" viewBox="0 0 77 32">
<title>topArrow</title>
<path fill="#ccc" style="fill: var(--color4, #ccc)" d="M36.894 0.49c0.898-0.653 2.114-0.653 3.011 0l35.84 26.066c1.144 0.831 1.396 2.433 0.565 3.576s-2.433 1.396-3.576 0.565l-34.334-24.97-34.334 24.97c-1.143 0.832-2.744 0.579-3.576-0.565s-0.579-2.745 0.565-3.576l35.84-26.066z"></path>
<path fill="#bea992" style="fill: var(--color5, #bea992)" d="M36.894 0.49c0.898-0.653 2.114-0.653 3.011 0l35.84 26.066c1.144 0.831 1.396 2.433 0.565 3.576s-2.433 1.396-3.576 0.565l-34.334-24.97-34.334 24.97c-1.143 0.832-2.744 0.579-3.576-0.565s-0.579-2.745 0.565-3.576l35.84-26.066z"></path>
</symbol>
<symbol id="icon-cross" viewBox="0 0 32 32">
<title>cross</title>
<path fill="#212121" style="fill: var(--color6, #212121)" d="M29.669 31.999l-29.668-29.668 2.331-2.331 29.668 29.668-2.331 2.331z"></path>
<path fill="#bea992" style="fill: var(--color5, #bea992)" d="M29.669 31.999l-29.668-29.668 2.331-2.331 29.668 29.668-2.331 2.331z"></path>
<path fill="#212121" style="fill: var(--color6, #212121)" d="M2.331 31.999l29.668-29.668-2.331-2.331-29.668 29.668 2.331 2.331z"></path>
<path fill="#bea992" style="fill: var(--color5, #bea992)" d="M2.331 31.999l29.668-29.668-2.331-2.331-29.668 29.668 2.331 2.331z"></path>
</symbol>
<symbol id="icon-hamburger" viewBox="0 0 32 32">
<title>hamburger</title>
<path fill="#6b4320" style="fill: var(--color7, #6b4320)" d="M17.467 1.588l12.703 12.703c0.877 0.877 0.877 2.299 0 3.176l-12.703 12.703c-0.877 0.877-2.299 0.877-3.176 0l-12.703-12.703c-0.877-0.877-0.877-2.299 0-3.176l12.703-12.703c0.877-0.877 2.299-0.877 3.176 0z"></path>
<path fill="#bea992" style="fill: var(--color5, #bea992)" d="M17.467 1.588l12.703 12.703c0.877 0.877 0.877 2.299 0 3.176l-12.703 12.703c-0.877 0.877-2.299 0.877-3.176 0l-12.703-12.703c-0.877-0.877-0.877-2.299 0-3.176l12.703-12.703c0.877-0.877 2.299-0.877 3.176 0z"></path>
<path fill="#fff" style="fill: var(--color1, #fff)" d="M22.616 12.126h-13.474v-0.898h13.474v0.898z"></path>
<path fill="#fff" style="fill: var(--color1, #fff)" d="M22.616 16.168h-13.474v-0.898h13.474v0.898z"></path>
<path fill="#fff" style="fill: var(--color1, #fff)" d="M22.616 20.211h-13.474v-0.898h13.474v0.898z"></path>
</symbol>
</defs>
</svg>
