<svg width="60" height="25" viewBox="0 0 60 25" fill="none" xmlns="http://www.w3.org/2000/svg">
<path fill-rule="evenodd" clip-rule="evenodd" d="M28.8237 0.382528C29.525 -0.127509 30.475 -0.127509 31.1763 0.382528L59.1763 20.7462C60.0697 21.3958 60.2672 22.6467 59.6175 23.54C58.9678 24.4333 57.717 24.6308 56.8237 23.9811L30 4.473L3.17635 23.9811C2.28304 24.6308 1.03221 24.4333 0.382532 23.54C-0.267145 22.6467 -0.0696447 21.3958 0.82366 20.7462L28.8237 0.382528Z" fill="#CCCCCC"/>
<path fill-rule="evenodd" clip-rule="evenodd" d="M28.8237 0.382528C29.525 -0.127509 30.475 -0.127509 31.1763 0.382528L59.1763 20.7462C60.0697 21.3958 60.2672 22.6467 59.6175 23.54C58.9678 24.4333 57.717 24.6308 56.8237 23.9811L30 4.473L3.17635 23.9811C2.28304 24.6308 1.03221 24.4333 0.382532 23.54C-0.267145 22.6467 -0.0696447 21.3958 0.82366 20.7462L28.8237 0.382528Z" fill="#BEA992"/>
</svg>
