<svg width="20" height="18" viewBox="0 0 20 18" fill="none" xmlns="http://www.w3.org/2000/svg">
<path d="M6.2896 17.1273C13.8368 17.1273 17.9648 10.8745 17.9648 5.45206C17.9648 5.27446 17.9648 5.09766 17.9528 4.92166C18.7559 4.34079 19.4491 3.62156 20 2.79766C19.2511 3.1295 18.4567 3.34712 17.6432 3.44326C18.4998 2.93045 19.1409 2.12388 19.4472 1.17366C18.6417 1.65163 17.7605 1.98847 16.8416 2.16966C16.2229 1.51181 15.4047 1.0762 14.5135 0.930231C13.6223 0.784267 12.7079 0.93609 11.9116 1.36221C11.1154 1.78832 10.4819 2.46497 10.109 3.28745C9.73605 4.10993 9.64462 5.03238 9.8488 5.91206C8.2174 5.83027 6.62144 5.40633 5.16451 4.66773C3.70759 3.92914 2.42227 2.89242 1.392 1.62486C0.867274 2.52819 0.70656 3.59755 0.942583 4.61521C1.17861 5.63287 1.79362 6.52232 2.6624 7.10246C2.00939 7.08311 1.37062 6.90695 0.8 6.58886C0.8 6.60566 0.8 6.62326 0.8 6.64086C0.800259 7.58823 1.12821 8.50636 1.72823 9.2395C2.32824 9.97264 3.16338 10.4757 4.092 10.6633C3.4879 10.828 2.85406 10.8521 2.2392 10.7337C2.50141 11.549 3.01189 12.262 3.69926 12.7729C4.38662 13.2839 5.21649 13.5672 6.0728 13.5833C4.61979 14.7252 2.82485 15.3451 0.9768 15.3433C0.650323 15.3426 0.324163 15.3229 0 15.2841C1.87651 16.4883 4.05993 17.127 6.2896 17.1241" fill="#1DA1F2"/>
</svg>
