<svg width="19" height="15" viewBox="0 0 19 15" fill="none" xmlns="http://www.w3.org/2000/svg">
<path fill-rule="evenodd" clip-rule="evenodd" d="M16.4008 2H2L2 11.2894L16.4008 11.2894V2ZM2 0C0.895431 0 0 0.895431 0 2V11.2894C0 12.394 0.89543 13.2894 2 13.2894H16.4008C17.5053 13.2894 18.4008 12.394 18.4008 11.2894V2C18.4008 0.895431 17.5053 0 16.4008 0H2Z" fill="white"/>
<path d="M6.16971 14.1447C6.16971 13.6724 6.55263 13.2894 7.02499 13.2894H11.8089C12.2812 13.2894 12.6641 13.6724 12.6641 14.1447C12.6641 14.6171 12.2812 15 11.8089 15H7.02499C6.55263 15 6.16971 14.6171 6.16971 14.1447Z" fill="white"/>
<path fill-rule="evenodd" clip-rule="evenodd" d="M6.7169 8.47363H2.65788V7.47363H6.7169V8.47363Z" fill="white"/>
<path fill-rule="evenodd" clip-rule="evenodd" d="M8.3405 10.1842H2.65788V9.1842H8.3405V10.1842Z" fill="white"/>
<path d="M2.6579 3.06677H3.7403L4.2815 4.77734L3.7403 6.4879H2.6579V3.06677Z" fill="white"/>
<path d="M5.09331 3.06677H6.17571L6.71691 4.77734L6.17571 6.4879H5.09331V3.06677Z" fill="white"/>
<path d="M7.52872 3.06677H8.61112L9.15232 4.77734L8.61112 6.4879H7.52872V3.06677Z" fill="white"/>
<path fill-rule="evenodd" clip-rule="evenodd" d="M12.235 9.69322V2.90802H12.985V9.69322H12.235Z" fill="white"/>
<path fill-rule="evenodd" clip-rule="evenodd" d="M15.8301 6.67554H9.38983V5.92554H15.8301V6.67554Z" fill="white"/>
<path d="M11.7621 7.30789C11.7621 7.59655 11.54 7.83056 11.266 7.83056C10.992 7.83056 10.7699 7.59655 10.7699 7.30789C10.7699 7.01923 10.992 6.78522 11.266 6.78522C11.54 6.78522 11.7621 7.01923 11.7621 7.30789Z" fill="white"/>
<path d="M14.1253 9.03748C14.1253 9.21068 13.9921 9.35108 13.8277 9.35108C13.6633 9.35108 13.53 9.21068 13.53 9.03748C13.53 8.86428 13.6633 8.72388 13.8277 8.72388C13.9921 8.72388 14.1253 8.86428 14.1253 9.03748Z" fill="white"/>
<path d="M15.5144 3.95336C15.5144 4.53069 15.0702 4.99871 14.5222 4.99871C13.9742 4.99871 13.53 4.53069 13.53 3.95336C13.53 3.37604 13.9742 2.90802 14.5222 2.90802C15.0702 2.90802 15.5144 3.37604 15.5144 3.95336Z" fill="white"/>
</svg>
